<svg width="11" height="12" viewBox="0 0 11 12" fill="none" xmlns="http://www.w3.org/2000/svg">
<path d="M1.69 3.49599L8 9.80599V11.5082C8 11.792 7.77517 11.9723 7.51231 11.9959L3.87685 8.50721L0.997319 8.49949C0.446083 8.49801 0 8.05073 0 7.49949V4.49682C0.00024883 3.94463 0.447812 3.49695 1 3.49657L1.69 3.49599ZM2.46447 0.649663L4.655 2.83999L7.51231 0.495857C7.77517 0.519418 8 0.699685 8 0.983545V6.18499L10.5962 8.78139C10.8891 9.07428 10.8891 9.54916 10.5962 9.84205C10.3033 10.1349 9.82843 10.1349 9.53553 9.84205L1.40381 1.71032C1.11091 1.41743 1.11091 0.942556 1.40381 0.649663C1.6967 0.356769 2.17157 0.356769 2.46447 0.649663Z" fill="#B8C1CC"/>
</svg>
