<svg width="23" height="22" viewBox="0 0 23 22" fill="none" xmlns="http://www.w3.org/2000/svg">
<path fill-rule="evenodd" clip-rule="evenodd" d="M0.0368343 10.4989C0.0368343 4.83902 5.32585 0.5 11.5184 0.5C17.711 0.5 23 4.83902 23 10.4989C23 16.1589 17.711 20.4979 11.5184 20.4979C10.1453 20.4979 8.82539 20.288 7.60042 19.9013C6.15558 21.2498 4.05627 21.898 1.48825 21.9989C0.442147 22.04 -0.312908 20.9519 0.125119 19.978C0.746523 18.5866 1.54942 16.9915 1.64463 15.6002C0.627797 14.1195 0.0368343 12.3721 0.0368343 10.4989ZM11.5184 2.5C6.13335 2.5 2.03683 6.21891 2.03683 10.4989C2.03683 12.0359 2.55147 13.4778 3.45869 14.6996C3.58671 14.872 3.65584 15.081 3.65584 15.2957C3.65584 16.9295 3.00457 18.471 2.34141 19.9339C4.39748 19.7155 5.74632 19.0571 6.55967 18.1C6.83283 17.7786 7.27835 17.6631 7.67326 17.8114C8.84547 18.2516 10.1458 18.4979 11.5184 18.4979C16.9035 18.4979 21 14.779 21 10.4989C21 6.21891 16.9035 2.5 11.5184 2.5Z" fill="#99A2AD"/>
</svg>
