<svg width="23" height="23" viewBox="0 0 23 23" fill="none" xmlns="http://www.w3.org/2000/svg">
<path d="M7.07427 1.00171L15.0017 1.002L15.0045 3.00258L7.12203 3.0012C5.4509 3.01573 4.75075 3.16391 4.02948 3.54964C3.38894 3.89221 2.89221 4.38894 2.54964 5.02948C2.14248 5.79082 2 6.52864 2 8.40971V15.5903C2 17.4714 2.14248 18.2092 2.54964 18.9705C2.89221 19.6111 3.38894 20.1078 4.02948 20.4504C4.71068 20.8147 5.37304 20.9671 6.85233 20.9951L7.40971 21H14.5903L15.1477 20.9951C16.627 20.9671 17.2893 20.8147 17.9705 20.4504C18.6111 20.1078 19.1078 19.6111 19.4504 18.9705C19.8147 18.2893 19.9671 17.627 19.9951 16.1477L20 15.5903L19.9957 8L21.9974 7.99881L22 15.5903C22 17.7733 21.7973 18.823 21.214 19.9137C20.685 20.9028 19.9028 21.685 18.9137 22.214C17.823 22.7973 16.7733 23 14.5903 23H7.40971C5.22671 23 4.17697 22.7973 3.08629 22.214C2.0972 21.685 1.31498 20.9028 0.786017 19.9137C0.233412 18.8804 0.0223909 17.8839 0.00170898 15.9257V8.07427C0.0223909 6.11609 0.233412 5.11957 0.786017 4.08629C1.31498 3.0972 2.0972 2.31499 3.08629 1.78602C4.11957 1.23341 5.11609 1.02239 7.07427 1.00171ZM20.1782 2.82183C20.6077 3.2514 20.6077 3.94788 20.1782 4.37746L11.2877 13.2679C10.6211 13.9346 9.82886 14.4624 8.95693 14.8209L8.52259 14.9995C8.31827 15.0835 8.08454 14.9859 8.00054 14.7816C7.96047 14.6842 7.96047 14.5749 8.00054 14.4774L8.17911 14.0431C8.5376 13.1711 9.06542 12.3789 9.73205 11.7123L18.6225 2.82183C19.0521 2.39225 19.7486 2.39225 20.1782 2.82183ZM21 7C21.5128 7 21.9355 7.38604 21.9933 7.88338L22 8H20C20 7.44772 20.4477 7 21 7ZM15 1C15.5523 1 16 1.44772 16 2C16 2.51284 15.614 2.93551 15.1166 2.99327L15 3V1ZM21.8 0C22.4627 0 23 0.537258 23 1.2C23 1.86274 22.4627 2.4 21.8 2.4C21.1373 2.4 20.6 1.86274 20.6 1.2C20.6 0.537258 21.1373 0 21.8 0Z" fill="#2688EB"/>
</svg>
